<svg width="28" height="27" viewBox="0 0 28 27" fill="none" xmlns="http://www.w3.org/2000/svg">
<g filter="url(#filter0_d)">
<path d="M23.6105 3.89799C24.5189 6.96203 23.7586 10.0799 22.1566 12.4291C21.0992 14.0221 19.8354 15.3951 18.5434 16.5954C17.3546 17.8034 14.6945 20.1935 13.9893 20.2599C13.3661 20.1298 12.6668 19.3605 12.172 18.9645C9.39172 16.6572 6.39883 13.8514 4.8813 10.7835C3.60897 7.8383 3.60663 4.1954 5.58685 1.93736C8.15452 -0.589692 12.0255 -0.0959004 13.9893 2.54423C14.5167 1.79733 15.1652 1.20991 15.9349 0.782004C19.0552 -0.577665 22.3011 0.807804 23.6105 3.89799Z" fill="#D84242"/>
</g>
<defs>
<filter id="filter0_d" x="0" y="0.259888" width="28" height="28" filterUnits="userSpaceOnUse" color-interpolation-filters="sRGB">
<feFlood flood-opacity="0" result="BackgroundImageFix"/>
<feColorMatrix in="SourceAlpha" type="matrix" values="0 0 0 0 0 0 0 0 0 0 0 0 0 0 0 0 0 0 127 0"/>
<feOffset dy="4"/>
<feGaussianBlur stdDeviation="2"/>
<feColorMatrix type="matrix" values="0 0 0 0 0 0 0 0 0 0 0 0 0 0 0 0 0 0 0.25 0"/>
<feBlend mode="normal" in2="BackgroundImageFix" result="effect1_dropShadow"/>
<feBlend mode="normal" in="SourceGraphic" in2="effect1_dropShadow" result="shape"/>
</filter>
</defs>
</svg>
